<svg xmlns="http://www.w3.org/2000/svg" viewBox="0 0 32 32" fill="none">
  <!-- Background circle -->
  <circle cx="16" cy="16" r="15" fill="#3B82F6" stroke="#1E40AF" stroke-width="2"/>
  
  <!-- Algorithm visualization elements -->
  <!-- Sorting bars -->
  <rect x="6" y="20" width="2" height="6" fill="white" opacity="0.9"/>
  <rect x="9" y="18" width="2" height="8" fill="white" opacity="0.9"/>
  <rect x="12" y="16" width="2" height="10" fill="white" opacity="0.9"/>
  <rect x="15" y="14" width="2" height="12" fill="white" opacity="0.9"/>
  
  <!-- Tree structure -->
  <circle cx="22" cy="10" r="2" fill="white"/>
  <circle cx="19" cy="15" r="1.5" fill="white" opacity="0.8"/>
  <circle cx="25" cy="15" r="1.5" fill="white" opacity="0.8"/>
  
  <!-- Tree connections -->
  <line x1="22" y1="12" x2="19" y2="13.5" stroke="white" stroke-width="1" opacity="0.8"/>
  <line x1="22" y1="12" x2="25" y2="13.5" stroke="white" stroke-width="1" opacity="0.8"/>
  
  <!-- Path finding grid -->
  <rect x="6" y="6" width="1.5" height="1.5" fill="white" opacity="0.7"/>
  <rect x="8" y="6" width="1.5" height="1.5" fill="white" opacity="0.7"/>
  <rect x="10" y="6" width="1.5" height="1.5" fill="white" opacity="0.7"/>
  <rect x="6" y="8" width="1.5" height="1.5" fill="white" opacity="0.7"/>
  <rect x="8" y="8" width="1.5" height="1.5" fill="#10B981" opacity="0.9"/>
  <rect x="10" y="8" width="1.5" height="1.5" fill="white" opacity="0.7"/>
  <rect x="6" y="10" width="1.5" height="1.5" fill="white" opacity="0.7"/>
  <rect x="8" y="10" width="1.5" height="1.5" fill="white" opacity="0.7"/>
  <rect x="10" y="10" width="1.5" height="1.5" fill="#EF4444" opacity="0.9"/>
</svg>
